#Comment line ignore any data following # character 
#Hierarchical Translation and Rotation (.htr) file 
[Header]	
#Header keywords are followed by a single value 
FileType HTR		#Single word string
DataType HTRS		#Translation followed by rotation and scale data
FileVersion 1		#integer
NumSegments 64		#integer
NumFrames 3		#integer
DataFrameRate 30		#integer, data frame rate in this file
EulerRotationOrder ZYX
CalibrationUnits mm
RotationUnits Degrees
GlobalAxisofGravity Y
BoneLengthAxis Y
ScaleFactor 1.00
[SegmentNames&Hierarchy]
#CHILD	PARENT
Pinger_Root GLOBAL
Pelvis Pinger_Root
L_Hip Pelvis
R_Hip Pelvis
Rear_Leg01 Pelvis
Spine1 Pelvis
L_Leg01 L_Hip
L_Leg02 L_Leg01
L_Leg03 L_Leg02
L_Foot L_Leg03
L_Toe1_01 L_Foot
L_Toe2_01 L_Foot
L_Toe3_01 L_Foot
planeAlignerLeft L_Foot
L_Toe1_02 L_Toe1_01
L_Toe1_03 L_Toe1_02
L_Toe2_02 L_Toe2_01
L_Toe2_03 L_Toe2_02
L_Toe3_02 L_Toe3_01
L_Toe3_03 L_Toe3_02
planeLockWeightLeft planeAlignerLeft
R_Leg01 R_Hip
R_Leg02 R_Leg01
R_Leg03 R_Leg02
R_Foot R_Leg03
planeAlignerRight R_Foot
R_Toe1_01 R_Foot
R_Toe2_01 R_Foot
R_Toe3_01 R_Foot
planeLockWeightRight planeAlignerRight
R_Toe1_02 R_Toe1_01
R_Toe1_03 R_Toe1_02
R_Toe2_02 R_Toe2_01
R_Toe2_03 R_Toe2_02
R_Toe3_02 R_Toe3_01
R_Toe3_03 R_Toe3_02
Rear_Leg02 Rear_Leg01
Rear_Leg03 Rear_Leg02
Rear_Leg04 Rear_Leg03
Rear_Foot Rear_Leg04
planeAlignerCenter Rear_Foot
Rear_Toe1_01 Rear_Foot
Rear_Toe2_01 Rear_Foot
Rear_Toe3_01 Rear_Foot
planeLockWeightCenter planeAlignerCenter
Rear_Toe1_02 Rear_Toe1_01
Rear_Toe1_03 Rear_Toe1_02
Rear_Toe2_02 Rear_Toe2_01
Rear_Toe2_03 Rear_Toe2_02
Rear_Toe3_02 Rear_Toe3_01
Rear_Toe3_03 Rear_Toe3_02
Back_Bone Spine1
Head Spine1
Motor_Bone Back_Bone
Ping_Mechanism Back_Bone
BN_LookIK Head
bottomMouth Head
L_Mouth01 Head
L_mouthFront Head
mouthGun Head
R_Mouth01 Head
R_mouthFront Head
TopMouth Head
weapon_bone Head
[BasePosition]
#SegmentName Tx, Ty, Tz, Rx, Ry, Rz, BoneLength
Pinger_Root 0.000000 0.000000 0.000000 -90.000000 0.000000 0.000000 10.000000 
Pelvis 0.000000 0.000000 0.000000 0.000000 0.000000 0.000000 10.000000 
L_Hip 0.000000 0.000000 0.000000 0.000000 0.000000 0.000000 10.000000 
R_Hip 0.000000 0.000000 0.000000 0.000000 0.000000 0.000000 10.000000 
Rear_Leg01 0.000000 0.000000 0.000000 0.000000 0.000000 0.000000 10.000000 
Spine1 0.000000 0.000000 0.000000 0.000000 0.000000 0.000000 10.000000 
L_Leg01 0.000000 0.000000 0.000000 0.000000 0.000000 0.000000 10.000000 
L_Leg02 0.000000 0.000000 0.000000 0.000000 0.000000 0.000000 10.000000 
L_Leg03 0.000000 0.000000 0.000000 0.000000 0.000000 0.000000 10.000000 
L_Foot 0.000000 0.000000 0.000000 0.000000 0.000000 0.000000 10.000000 
L_Toe1_01 0.000000 0.000000 0.000000 0.000000 0.000000 0.000000 10.000000 
L_Toe2_01 0.000000 0.000000 0.000000 0.000000 0.000000 0.000000 10.000000 
L_Toe3_01 0.000000 0.000000 0.000000 0.000000 0.000000 0.000000 10.000000 
planeAlignerLeft 0.000000 0.000000 0.000000 0.000000 0.000000 0.000000 10.000000 
L_Toe1_02 0.000000 0.000000 0.000000 0.000000 0.000000 0.000000 10.000000 
L_Toe1_03 0.000000 0.000000 0.000000 0.000000 0.000000 0.000000 10.000000 
L_Toe2_02 0.000000 0.000000 0.000000 0.000000 0.000000 0.000000 10.000000 
L_Toe2_03 0.000000 0.000000 0.000000 0.000000 0.000000 0.000000 10.000000 
L_Toe3_02 0.000000 0.000000 0.000000 0.000000 0.000000 0.000000 10.000000 
L_Toe3_03 0.000000 0.000000 0.000000 0.000000 0.000000 0.000000 10.000000 
planeLockWeightLeft 0.000000 0.000000 0.000000 0.000000 0.000000 0.000000 10.000000 
R_Leg01 0.000000 0.000000 0.000000 0.000000 0.000000 0.000000 10.000000 
R_Leg02 0.000000 0.000000 0.000000 0.000000 0.000000 0.000000 10.000000 
R_Leg03 0.000000 0.000000 0.000000 0.000000 0.000000 0.000000 10.000000 
R_Foot 0.000000 0.000000 0.000000 0.000000 0.000000 0.000000 10.000000 
planeAlignerRight 0.000000 0.000000 0.000000 0.000000 0.000000 0.000000 10.000000 
R_Toe1_01 0.000000 0.000000 0.000000 0.000000 0.000000 0.000000 10.000000 
R_Toe2_01 0.000000 0.000000 0.000000 0.000000 0.000000 0.000000 10.000000 
R_Toe3_01 0.000000 0.000000 0.000000 0.000000 0.000000 0.000000 10.000000 
planeLockWeightRight 0.000000 0.000000 0.000000 0.000000 0.000000 0.000000 10.000000 
R_Toe1_02 0.000000 0.000000 0.000000 0.000000 0.000000 0.000000 10.000000 
R_Toe1_03 0.000000 0.000000 0.000000 0.000000 0.000000 0.000000 10.000000 
R_Toe2_02 0.000000 0.000000 0.000000 0.000000 0.000000 0.000000 10.000000 
R_Toe2_03 0.000000 0.000000 0.000000 0.000000 0.000000 0.000000 10.000000 
R_Toe3_02 0.000000 0.000000 0.000000 0.000000 0.000000 0.000000 10.000000 
R_Toe3_03 0.000000 0.000000 0.000000 0.000000 0.000000 0.000000 10.000000 
Rear_Leg02 0.000000 0.000000 0.000000 0.000000 0.000000 0.000000 10.000000 
Rear_Leg03 0.000000 0.000000 0.000000 0.000000 0.000000 0.000000 10.000000 
Rear_Leg04 0.000000 0.000000 0.000000 0.000000 0.000000 0.000000 10.000000 
Rear_Foot 0.000000 0.000000 0.000000 0.000000 0.000000 0.000000 10.000000 
planeAlignerCenter 0.000000 0.000000 0.000000 0.000000 0.000000 0.000000 10.000000 
Rear_Toe1_01 0.000000 0.000000 0.000000 0.000000 0.000000 0.000000 10.000000 
Rear_Toe2_01 0.000000 0.000000 0.000000 0.000000 0.000000 0.000000 10.000000 
Rear_Toe3_01 0.000000 0.000000 0.000000 0.000000 0.000000 0.000000 10.000000 
planeLockWeightCenter 0.000000 0.000000 0.000000 0.000000 0.000000 0.000000 10.000000 
Rear_Toe1_02 0.000000 0.000000 0.000000 0.000000 0.000000 0.000000 10.000000 
Rear_Toe1_03 0.000000 0.000000 0.000000 0.000000 0.000000 0.000000 10.000000 
Rear_Toe2_02 0.000000 0.000000 0.000000 0.000000 0.000000 0.000000 10.000000 
Rear_Toe2_03 0.000000 0.000000 0.000000 0.000000 0.000000 0.000000 10.000000 
Rear_Toe3_02 0.000000 0.000000 0.000000 0.000000 0.000000 0.000000 10.000000 
Rear_Toe3_03 0.000000 0.000000 0.000000 0.000000 0.000000 0.000000 10.000000 
Back_Bone 0.000000 0.000000 0.000000 0.000000 0.000000 0.000000 10.000000 
Head 0.000000 0.000000 0.000000 0.000000 0.000000 0.000000 10.000000 
Motor_Bone 0.000000 0.000000 0.000000 0.000000 0.000000 0.000000 10.000000 
Ping_Mechanism 0.000000 0.000000 0.000000 0.000000 0.000000 0.000000 10.000000 
BN_LookIK 0.000000 0.000000 0.000000 0.000000 0.000000 0.000000 10.000000 
bottomMouth 0.000000 0.000000 0.000000 0.000000 0.000000 0.000000 10.000000 
L_Mouth01 0.000000 0.000000 0.000000 0.000000 0.000000 0.000000 10.000000 
L_mouthFront 0.000000 0.000000 0.000000 0.000000 0.000000 0.000000 10.000000 
mouthGun 0.000000 0.000000 0.000000 0.000000 0.000000 0.000000 10.000000 
R_Mouth01 0.000000 0.000000 0.000000 0.000000 0.000000 0.000000 10.000000 
R_mouthFront 0.000000 0.000000 0.000000 0.000000 0.000000 0.000000 10.000000 
TopMouth 0.000000 0.000000 0.000000 0.000000 0.000000 0.000000 10.000000 
weapon_bone 0.000000 0.000000 0.000000 0.000000 0.000000 0.000000 10.000000 
#Beginning of Data. Separated by tabs
#Fr	Tx	Ty	Tz	Rx	Ry	Rz	SF
[Pinger_Root]
16 -0.000011 1333.819580 0.000000 -0.000075 -0.000000 -0.000020 1333.819580
17 -0.000011 1426.472412 0.000000 -0.000075 -0.000000 -0.000020 1426.472412
18 -0.000012 1517.609985 0.000000 -0.000075 -0.000000 -0.000020 1517.609985
[Pelvis]
16 -348.780701 1105.825073 4581.821777 35.082531 -74.096977 -33.287788 4726.266113
17 -351.323517 1100.064209 4591.530762 33.811321 -73.223961 -30.330029 4734.524902
18 -352.447937 1093.035522 4616.570313 33.645206 -72.684181 -28.378218 4757.275391
[L_Hip]
16 5.766392 125.831482 872.656799 -178.253296 -81.787666 87.381149 881.701050
17 5.766392 125.831482 872.656799 -178.253342 -81.787758 87.381340 881.701050
18 5.766392 125.831482 872.656799 -178.253311 -81.787712 87.381248 881.701050
[R_Hip]
16 5.765438 125.836372 -872.654907 -1.746701 81.787666 87.381149 881.699829
17 5.765438 125.836372 -872.654907 -1.746678 81.787712 87.381248 881.699829
18 5.765438 125.836372 -872.654907 -1.746713 81.787666 87.381149 881.699829
[Rear_Leg01]
16 -192.298416 -925.602966 -0.001907 131.257797 5.000643 -179.431671 945.367432
17 -192.298416 -925.602966 -0.001907 132.600479 8.909123 -174.204727 945.367432
18 -192.298416 -925.602966 -0.001907 135.078842 12.834601 -168.709656 945.367432
[Spine1]
16 290.604584 5.007505 0.000477 -6.214365 -10.055787 39.603809 290.647736
17 290.604584 5.007505 0.000477 -8.302499 -9.953531 39.009796 290.647736
18 290.604584 5.007505 0.000477 -10.390203 -9.872686 38.412792 290.647736
[L_Leg01]
16 761.932007 -0.002384 -0.069261 73.620628 -10.018035 -88.581612 761.932068
17 761.932007 -0.002384 -0.069261 74.284447 -8.472634 -89.745125 761.932068
18 761.932007 -0.002384 -0.069261 74.914093 -6.914360 -90.886261 761.932068
[L_Leg02]
16 1441.140503 -0.000954 -0.000715 -1.136679 0.500158 -113.549561 1441.140503
17 1441.140503 -0.000954 -0.000715 -1.213746 0.515866 -111.748589 1441.140503
18 1441.140503 -0.000954 -0.000715 -1.277495 0.539160 -109.370888 1441.140503
[L_Leg03]
16 1686.963989 -0.000715 -0.000954 0.043662 -0.010305 98.611137 1686.963989
17 1686.963989 -0.000715 -0.000954 0.043639 -0.010402 98.865784 1686.963989
18 1686.963989 -0.000715 -0.000954 0.043661 -0.010309 98.621185 1686.963989
[L_Foot]
16 3041.570068 -30.715107 11.297464 -11.902980 14.747561 79.904236 3041.746094
17 3041.570068 -30.715107 11.297464 -12.165163 13.636209 79.616570 3041.746094
18 3041.570068 -30.715107 11.297464 -12.420526 12.523256 79.335312 3041.746094
[L_Toe1_01]
16 -188.216690 -224.732346 -21.137953 89.133057 -1.775782 -156.977478 293.899567
17 -188.216690 -224.732346 -21.137953 89.084007 -1.750612 -155.443909 293.899567
18 -188.216690 -224.732346 -21.137953 89.035614 -1.724125 -153.909561 293.899567
[L_Toe2_01]
16 200.746536 -219.926590 148.838394 -76.549858 -12.606621 -49.845310 332.896027
17 200.746536 -219.926590 148.838394 -76.273178 -12.324857 -51.177132 332.896027
18 200.746536 -219.926590 148.838394 -76.003464 -12.036775 -52.506672 332.896027
[L_Toe3_01]
16 188.832520 -219.859131 -191.078659 -107.474121 15.623259 -51.780731 347.140900
17 188.832520 -219.859131 -191.078659 -107.813332 15.255542 -53.117783 347.140900
18 188.832520 -219.859131 -191.078659 -108.143097 14.880153 -54.450775 347.140900
[planeAlignerLeft]
16 -63.799099 -685.859924 0.069631 0.000000 -89.951546 -90.041489 688.820801
17 -66.123100 -702.551025 0.065715 0.000000 -89.951546 -90.044144 705.655884
18 -68.447113 -719.242065 0.061798 0.000000 -89.951546 -90.046806 722.491638
[L_Toe1_02]
16 413.761139 0.000477 0.000000 0.001391 -25.055492 0.001391 413.761139
17 413.761139 0.000477 0.000000 0.001390 -25.275837 0.001390 413.761139
18 413.761139 0.000477 0.000000 0.001388 -25.496170 0.001388 413.761139
[L_Toe1_03]
16 464.317322 0.000358 -0.000089 0.005657 66.053345 0.005657 464.317322
17 464.317322 0.000358 -0.000089 0.005154 63.664482 0.005154 464.317322
18 464.317322 0.000358 -0.000089 0.004733 61.274578 0.004733 464.317322
[L_Toe2_02]
16 342.235809 -0.000477 0.000238 0.001180 -77.951027 0.001180 342.235809
17 342.235809 -0.000477 0.000238 0.001181 -77.550011 0.001181 342.235809
18 342.235809 -0.000477 0.000238 0.001181 -77.148933 0.001181 342.235809
[L_Toe2_03]
16 420.210846 -0.000715 0.000000 -179.996902 76.416924 -179.993378 420.210846
17 420.210846 -0.000715 0.000000 -179.996338 77.838173 -179.992828 420.210846
18 420.210846 -0.000715 0.000000 -179.995621 79.259125 -179.992111 420.210846
[L_Toe3_02]
16 329.270111 0.000954 0.000000 0.001177 -81.374176 0.001177 329.270111
17 329.270111 0.000954 0.000000 0.001177 -81.168777 0.001177 329.270111
18 329.270111 0.000954 0.000000 0.001177 -80.797577 0.001177 329.270111
[L_Toe3_03]
16 439.137451 -0.001907 0.000954 -179.997467 74.631592 -179.993942 439.137451
17 439.137451 -0.001907 0.000954 -179.997116 75.814674 -179.993591 439.137451
18 439.137451 -0.001907 0.000954 -179.996567 77.304726 -179.993042 439.137451
[planeLockWeightLeft]
16 1000.000000 -0.000339 -0.000273 -0.011826 -0.004376 0.005620 1000.000000
17 1000.000000 -0.000346 -0.000266 -0.011826 -0.004376 0.005620 1000.000000
18 1000.000000 -0.000354 -0.000260 -0.011826 -0.004376 0.005620 1000.000000
[R_Leg01]
16 761.455627 -0.001907 -0.000358 69.553818 -37.443432 79.113007 761.455688
17 761.455627 -0.001907 -0.000358 70.799973 -33.534672 74.707855 761.455688
18 761.455627 -0.001907 -0.000358 73.172523 -26.981651 68.940552 761.455688
[R_Leg02]
16 1441.140625 0.000000 -0.000238 -0.668662 0.180744 -165.891418 1441.140625
17 1441.140625 0.000000 -0.000238 -0.836694 0.116065 -168.677948 1441.140625
18 1441.140625 0.000000 -0.000238 -1.027438 -0.014730 -169.854156 1441.140625
[R_Leg03]
16 1686.963989 0.000954 0.001431 -0.049486 0.013131 96.075996 1686.963989
17 1686.963989 0.000954 0.001431 -0.021475 0.006385 105.159920 1686.963989
18 1686.963989 0.000954 0.001431 0.020742 -0.006532 115.698212 1686.963989
[R_Foot]
16 3041.560059 -30.531288 -11.204481 37.005745 -35.389389 73.166382 3041.734131
17 3041.560059 -30.531288 -11.204481 36.795807 -37.578369 72.785370 3041.734131
18 3041.560059 -30.531288 -11.204481 35.310524 -39.619656 73.557808 3041.734131
[planeAlignerRight]
16 -263.112823 -760.116272 64.130539 0.000000 -89.951546 -90.033577 806.918701
17 -262.958649 -762.144714 59.505756 0.000000 -89.937447 -90.035477 808.426025
18 -262.804474 -764.173096 54.880959 0.000000 -89.937447 -90.037376 809.962097
[R_Toe1_01]
16 -188.383347 -224.864899 21.052242 91.375679 1.352218 -140.404724 294.101532
17 -188.383347 -224.864899 21.052242 91.453857 0.799312 -142.871109 294.101532
18 -188.383347 -224.864899 21.052242 91.461418 0.687709 -144.047592 294.101532
[R_Toe2_01]
16 200.637817 -220.002121 -148.787384 -106.798767 5.093918 -75.496597 332.857574
17 200.637817 -220.002121 -148.787384 -107.170067 3.905885 -81.147148 332.857574
18 200.637817 -220.002121 -148.787384 -107.214249 4.382017 -81.589218 332.857574
[R_Toe3_01]
16 188.606735 -220.092957 191.126343 -67.184921 -16.366686 -78.612831 347.192566
17 188.606735 -220.092957 191.126343 -66.907745 -14.179183 -83.702705 347.192566
18 188.606735 -220.092957 191.126343 -66.934669 -13.722040 -83.917374 347.192566
[planeLockWeightRight]
16 -0.000044 0.000000 0.000000 -0.011823 -0.004379 -0.000027 0.000044
17 -0.000065 0.000000 0.000000 -0.011823 -0.004379 -0.000027 0.000065
18 -0.000087 0.000000 0.000000 -0.011823 -0.004379 -0.000027 0.000087
[R_Toe1_02]
16 413.762085 0.000477 -0.000119 0.001414 -22.169409 0.001414 413.762085
17 413.762085 0.000477 -0.000119 0.001423 -21.081823 0.001423 413.762085
18 413.762085 0.000477 -0.000119 0.001424 -21.003862 0.001424 413.762085
[R_Toe1_03]
16 464.317810 0.000000 0.001088 -0.010174 82.173386 -0.006669 464.317810
17 464.317810 0.000000 0.001088 -0.020629 86.510971 -0.017131 464.317810
18 464.317810 0.000000 0.001088 -0.026533 87.342216 -0.023036 464.317810
[R_Toe2_02]
16 342.234741 -0.000954 0.000238 -0.002331 -80.824936 -0.002331 342.234741
17 342.234741 -0.000954 0.000238 -0.002331 -80.806206 -0.002331 342.234741
18 342.234741 -0.000954 0.000238 -0.002331 -80.787437 -0.002331 342.234741
[R_Toe2_03]
16 420.210846 0.000715 -0.000268 -179.996475 49.178844 179.999786 420.210846
17 420.210846 0.000715 -0.000268 -179.996475 49.774166 179.999817 420.210846
18 420.210846 0.000715 -0.000268 -179.996445 50.369541 179.999847 420.210846
[R_Toe3_02]
16 329.270355 -0.000477 -0.000954 0.001175 -84.297005 0.001175 329.270355
17 329.270355 -0.000477 -0.000954 0.001175 -84.381439 0.001175 329.270355
18 329.270355 -0.000477 -0.000954 0.001175 -84.466003 0.001175 329.270355
[R_Toe3_03]
16 439.137939 0.000238 0.001431 -179.996521 52.199673 -179.989136 439.137939
17 439.137939 0.000238 0.001431 -179.996567 51.973999 -179.989182 439.137939
18 439.137939 0.000238 0.001431 -179.996506 52.295387 -179.989120 439.137939
[Rear_Leg02]
16 1162.777710 -0.029802 0.005960 0.696418 -0.144585 171.711014 1162.777710
17 1162.777710 -0.029802 0.005960 -5.656549 1.901984 175.906982 1162.777710
18 1162.777710 -0.029802 0.005960 -12.954936 3.948519 -177.705658 1162.777710
[Rear_Leg03]
16 607.192505 -0.013351 -0.073195 0.009912 -0.006156 80.038391 607.192505
17 607.192505 -0.013351 -0.073195 0.009906 -0.006166 80.159111 607.192505
18 607.192505 -0.013351 -0.073195 0.009900 -0.006177 80.279816 607.192505
[Rear_Leg04]
16 995.874512 -0.020504 -0.011921 -0.044785 -0.012611 102.704765 995.874573
17 995.874512 -0.020504 -0.011921 -0.041907 -0.015928 104.197815 995.874573
18 995.874512 -0.020504 -0.011921 -0.042001 -0.015681 104.873192 995.874573
[Rear_Foot]
16 3096.176270 -0.067472 -0.041425 -39.087036 88.781158 134.709732 3096.176270
17 3096.176270 -0.067472 -0.041425 79.838905 84.244217 -106.742790 3096.176270
18 3096.176270 -0.067472 -0.041425 84.732254 76.883644 -103.182648 3096.176270
[planeAlignerCenter]
16 -7.283844 -19.954430 -671.458008 0.001958 -0.001295 156.964752 671.793945
17 -23.231901 -54.138363 -682.502258 0.001972 -0.001273 155.701492 685.040161
18 -29.962227 -67.646843 -695.363647 0.001977 -0.001266 155.261185 699.288513
[Rear_Toe1_01]
16 0.653352 83.966492 -371.173737 -0.643223 16.411539 65.095436 380.553192
17 0.653352 83.966492 -371.173737 -0.741070 16.267223 63.693085 380.553192
18 0.653352 83.966492 -371.173737 -0.800151 16.877470 63.188801 380.553192
[Rear_Toe2_01]
16 178.200760 -294.826019 -362.060547 -3.832787 43.870888 -104.261116 499.765686
17 178.200760 -294.826019 -362.060547 -4.097643 43.420761 -106.301132 499.765686
18 178.200760 -294.826019 -362.060547 -4.257747 43.396675 -107.038803 499.765686
[Rear_Toe3_01]
16 -153.359680 -308.780914 -362.060852 -4.130501 44.366585 -143.037674 499.952881
17 -153.359680 -308.780914 -362.060852 -3.772788 44.565414 -143.519836 499.952881
18 -153.359680 -308.780914 -362.060852 -3.702415 44.930580 -143.674484 499.952881
[planeLockWeightCenter]
16 1000.000244 0.000444 -0.000116 -0.011814 -0.004373 -0.000015 1000.000244
17 1000.000244 0.000452 -0.000115 -0.011814 -0.004373 -0.000015 1000.000244
18 1000.000366 0.000460 -0.000114 -0.011814 -0.004373 -0.000015 1000.000366
[Rear_Toe1_02]
16 379.707825 0.194073 0.000477 -0.001320 -32.615818 -0.001320 379.707855
17 379.707825 0.194073 0.000477 -0.002655 -32.124252 -0.002655 379.707855
18 379.707825 0.194073 0.000477 -0.006656 -31.954447 -0.006655 379.707855
[Rear_Toe1_03]
16 500.129700 0.165701 0.000119 -179.926819 89.078041 -179.930313 500.129761
17 500.129700 0.165701 0.000119 -179.986725 84.283546 -179.990219 500.129761
18 500.129700 0.165701 0.000119 -179.988846 82.989609 -179.992355 500.129761
[Rear_Toe2_02]
16 340.494507 0.000238 -0.000954 0.001187 -73.461250 0.001187 340.494507
17 340.494507 0.000238 -0.000954 0.001196 -67.661270 0.001196 340.494507
18 340.494507 0.000238 -0.000954 0.001203 -64.569092 0.001203 340.494507
[Rear_Toe2_03]
16 433.103577 0.000000 0.000238 0.009257 75.432800 0.009257 433.103546
17 433.103577 0.000000 0.000238 0.005771 66.531792 0.005771 433.103546
18 433.103577 0.000000 0.000238 0.004879 62.161041 0.004879 433.103546
[Rear_Toe3_02]
16 340.494141 -0.000358 -0.000477 0.001181 -77.899452 0.001181 340.494171
17 340.494141 -0.000358 -0.000477 0.001186 -73.675873 0.001186 340.494171
18 340.494141 -0.000358 -0.000477 0.001189 -71.406174 0.001189 340.494171
[Rear_Toe3_03]
16 433.103577 0.001431 -0.000238 -0.011568 83.287064 -0.008065 433.103546
17 433.103577 0.001431 -0.000238 0.009577 75.921272 0.009577 433.103546
18 433.103577 0.001431 -0.000238 0.007606 72.246834 0.007606 433.103546
[Back_Bone]
16 1312.175781 -701.934692 0.000954 1.302103 -3.661989 -83.755753 1488.125488
17 1312.175781 -701.934692 0.000954 1.795295 -3.651017 -86.244919 1488.125488
18 1312.175781 -701.934692 0.000954 2.121208 -3.650540 -87.370285 1488.125488
[Head]
16 1406.159424 809.709290 0.001431 -2.650774 -0.898209 4.327586 1622.625488
17 1406.159424 809.709290 0.001431 -2.311824 -1.181027 4.939329 1622.625488
18 1406.159424 809.709290 0.001431 -1.900187 -1.372470 4.912147 1622.625488
[Motor_Bone]
16 1158.364380 -417.834747 0.000477 0.001261 -0.033986 -106.021004 1231.419434
17 1158.364380 -417.834747 0.000477 2.853720 -2.893725 -108.876030 1231.419434
18 1158.364380 -417.834747 0.000477 5.387601 -1.836368 -107.820084 1231.419434
[Ping_Mechanism]
16 1187.506226 -396.749847 65.295250 0.000103 -0.000053 82.120995 1253.732422
17 1187.927734 -397.477722 70.498077 0.000103 -0.000053 82.120995 1254.643677
18 1188.349243 -398.205536 75.700920 0.000103 -0.000053 82.120995 1255.576416
[BN_LookIK]
16 193.241119 1380.371704 -0.002861 0.000000 89.965736 -31.038179 1393.832153
17 193.241119 1380.371704 -0.002861 0.000000 89.965736 -31.038179 1393.832153
18 193.241119 1380.371704 -0.002861 0.000000 89.965736 -31.038179 1393.832153
[bottomMouth]
16 -435.092926 615.759399 -0.000954 -0.000022 0.000016 73.527184 753.966492
17 -435.092926 615.759399 -0.000954 -0.000022 0.000016 73.527184 753.966492
18 -435.092926 615.759399 -0.000954 -0.000022 0.000016 73.527184 753.966492
[L_Mouth01]
16 554.440979 7.658243 838.222046 150.204178 23.759130 109.605339 1005.027161
17 554.440979 7.658243 838.222046 150.204178 23.759130 109.605339 1005.027161
18 554.440979 7.658243 838.222046 150.204178 23.759130 109.605339 1005.027161
[L_mouthFront]
16 551.629089 934.514771 339.150421 0.000081 2.804060 79.119301 1136.941284
17 551.629089 934.514771 339.150421 0.000081 2.804060 79.119301 1136.941284
18 551.629089 934.514771 339.150421 0.000081 2.804060 79.119301 1136.941284
[mouthGun]
16 55.332661 1627.420898 0.000000 0.000023 0.000009 -11.038128 1628.361328
17 55.332661 1627.420898 0.000000 0.000023 0.000009 -11.038128 1628.361328
18 55.332661 1627.420898 0.000000 0.000023 0.000009 -11.038128 1628.361328
[R_Mouth01]
16 554.442383 7.659197 -838.223938 29.795891 -23.759109 109.605331 1005.029541
17 554.442383 7.659197 -838.223938 29.795891 -23.759109 109.605331 1005.029541
18 554.442383 7.659197 -838.223938 29.795891 -23.759109 109.605331 1005.029541
[R_mouthFront]
16 551.629089 934.514282 -339.151367 0.000029 -2.803930 79.119133 1136.941162
17 551.629089 934.514282 -339.151367 0.000029 -2.803930 79.119133 1136.941162
18 551.629089 934.514282 -339.151367 0.000029 -2.803930 79.119133 1136.941162
[TopMouth]
16 461.269867 -56.106091 -0.008583 -0.000059 -0.000268 92.025169 464.669525
17 461.269867 -56.106091 -0.008583 -0.000059 -0.000268 92.025169 464.669525
18 461.269867 -56.106091 -0.008583 -0.000059 -0.000268 92.025169 464.669525
[weapon_bone]
16 -987.239868 1448.372803 0.001431 0.000000 89.965736 -31.038221 1752.833740
17 -987.239868 1448.372803 0.001431 0.000000 89.965736 -31.038221 1752.833740
18 -987.239868 1448.372803 0.001431 0.000000 89.965736 -31.038221 1752.833740
